# File created by Blade
# Date/Time:  Tue Sep 30 19:33:40 2014
#---------------------------------------------------------
:version 1.10
:name HOM
:units
  mass 1.0
  length 1.000000
  angle deg
:documentation
     Acclaim Skeleton File
:root
   axis xyz
   order TX TY TZ RX RY RZ
   position 0.000000 0.000000 0.000000
   orientation 0 0 0
:bonedata
   begin
      id 1
      name Spine_dum
      direction 0.000000 1.000000 0.000000
      length 3.241213
      axis 0.0 0.0 0.0 xyz
   end
   begin
      id 2
      name LeftUpLeg_dum
      direction 1.000000 0.000000 0.000000
      length 3.434019
      axis 0.0 0.0 0.0 xyz
   end
   begin
      id 3
      name RightUpLeg_dum
      direction -1.000000 0.000000 0.000000
      length 3.434019
      axis 0.0 0.0 0.0 xyz
   end
   begin
      id 4
      name Spine
      direction 0.000000 1.000000 0.000000
      length 0.000000
      axis 0.0 0.0 0.0 xyz
      dof rx ry rz
   end
   begin
      id 5
      name Spine_dum1
      direction 0.000000 1.000000 0.000000
      length 18.382958
      axis 0.0 0.0 0.0 xyz
   end
   begin
      id 6
      name Spine_dum2
      direction 0.000000 1.000000 0.000000
      length 12.828261
      axis 0.0 0.0 0.0 xyz
   end
   begin
      id 7
      name Spine_dum3
      direction 0.000000 1.000000 0.000000
      length 12.828261
      axis 0.0 0.0 0.0 xyz
   end
   begin
      id 8
      name Head
      direction 0.000000 1.000000 0.000000
      length 4.527550
      axis 0.0 0.0 0.0 xyz
      dof rx ry rz
   end
   begin
      id 9
      name LeftShoulder
      direction 1.000000 0.000000 0.000000
      length 7.748055
      axis 0.0 0.0 -90.0 xyz
      dof rx ry rz
   end
   begin
      id 10
      name LeftArm
      direction 1.000000 0.000000 0.000000
      length 10.635614
      axis 0.0 0.0 -90.0 xyz
      dof rx ry rz
   end
   begin
      id 11
      name LeftForeArm
      direction 1.000000 0.000000 0.000000
      length 8.346755
      axis 0.0 0.0 -90.0 xyz
      dof ry rz rx
   end
   begin
      id 12
      name LeftHand
      direction 0.000000 0.000000 0.000000
      length 0.000000
      axis 0.0 0.0 -90.0 xyz
      dof rx ry rz
   end
   begin
      id 13
      name LeftHand_dum1
      direction 0.000000 0.000000 0.000000
      length 0.000000
      axis 0.0 0.0 -90.0 xyz
   end
   begin
      id 14
      name LeftHand_dum2
      direction 1.000000 0.000000 0.000000
      length 3.937000
      axis 0.0 0.0 -90.0 xyz
   end
   begin
      id 15
      name LeftHandThumb1
      direction 0.000000 0.000000 1.000000
      length 3.937000
      axis 0.0 0.0 -90.0 xyz
      dof rx rz ry
   end
   begin
      id 16
      name RightShoulder
      direction -1.000000 0.000000 0.000000
      length 7.748055
      axis 0.0 0.0 90.0 xyz
      dof rx ry rz
   end
   begin
      id 17
      name RightArm
      direction -1.000000 0.000000 0.000000
      length 10.635614
      axis 0.0 0.0 90.0 xyz
      dof rx ry rz
   end
   begin
      id 18
      name RightForeArm
      direction -1.000000 0.000000 0.000000
      length 8.346755
      axis 0.0 0.0 90.0 xyz
      dof ry rz rx
   end
   begin
      id 19
      name RightHand
      direction 0.000000 0.000000 0.000000
      length 0.000000
      axis 0.0 0.0 90.0 xyz
      dof rx ry rz
   end
   begin
      id 20
      name RightHand_dum1
      direction 0.000000 0.000000 0.000000
      length 0.000000
      axis 0.0 0.0 90.0 xyz
   end
   begin
      id 21
      name RightHand_dum2
      direction -1.000000 0.000000 0.000000
      length 3.937000
      axis 0.0 0.0 90.0 xyz
   end
   begin
      id 22
      name RightHandThumb1
      direction 0.000000 0.000000 1.000000
      length 3.937000
      axis 0.0 0.0 90.0 xyz
      dof rx rz ry
   end
   begin
      id 23
      name LeftUpLeg
      direction 0.000000 -1.000000 0.000000
      length 15.713025
      axis 0.0 0.0 0.0 xyz
      dof rx ry rz
   end
   begin
      id 24
      name LeftLeg
      direction 0.000000 -1.000000 0.000000
      length 14.435119
      axis 0.0 0.0 0.0 xyz
      dof rx ry rz
   end
   begin
      id 25
      name LeftFoot
      direction 0.000000 -0.258819 0.965926
      length 4.938895
      axis 15.0 0.0 0.0 xyz
      dof rx ry rz
   end
   begin
      id 26
      name LeftToeBase
      direction 0.000000 0.000000 1.000000
      length 2.952750
      axis 0.0 0.0 0.0 xyz
      dof rx ry rz
   end
   begin
      id 27
      name RightUpLeg
      direction 0.000000 -1.000000 0.000000
      length 15.713025
      axis 0.0 0.0 0.0 xyz
      dof rx ry rz
   end
   begin
      id 28
      name RightLeg
      direction 0.000000 -1.000000 0.000000
      length 14.435119
      axis 0.0 0.0 0.0 xyz
      dof rx ry rz
   end
   begin
      id 29
      name RightFoot
      direction 0.000000 -0.258819 0.965926
      length 4.938895
      axis 15.0 0.0 0.0 xyz
      dof rx ry rz
   end
   begin
      id 30
      name RightToeBase
      direction 0.000000 0.000000 1.000000
      length 2.952750
      axis 0.0 0.0 0.0 xyz
      dof rx ry rz
   end
:hierarchy
   begin
      root Spine_dum LeftUpLeg_dum RightUpLeg_dum
      Spine_dum Spine
      LeftUpLeg_dum LeftUpLeg
      RightUpLeg_dum RightUpLeg
      Spine Spine_dum1 Spine_dum2 Spine_dum3
      Spine_dum1 Head
      Spine_dum2 LeftShoulder
      Spine_dum3 RightShoulder
      LeftShoulder LeftArm
      LeftArm LeftForeArm
      LeftForeArm LeftHand
      LeftHand LeftHand_dum1 LeftHand_dum2
      LeftHand_dum1 LeftHandThumb1
      RightShoulder RightArm
      RightArm RightForeArm
      RightForeArm RightHand
      RightHand RightHand_dum1 RightHand_dum2
      RightHand_dum1 RightHandThumb1
      LeftUpLeg LeftLeg
      LeftLeg LeftFoot
      LeftFoot LeftToeBase
      RightUpLeg RightLeg
      RightLeg RightFoot
      RightFoot RightToeBase
   end

# File created by Blade
# Date/Time:  Mon Sep 22 21:09:19 2014
# Frame Rate: 120.000 fps
#------------------------------------------------------
:FULLY-SPECIFIED
:DEGREES
1242
root -2.255750 32.550628 -5.118369 -9.569381 55.128961 -33.097391
Spine -31.897437 -1.036930 13.188626
Head 11.846586 0.052086 13.184765
LeftShoulder -3.188688 41.328860 27.856736
LeftArm 88.321356 28.769118 -36.985825
LeftForeArm -29.380670 0.000000 82.252453
LeftHand -23.536200 0.000000 -6.741320
LeftHandThumb1 -26.253704 0.000000 33.147579
RightShoulder -6.036665 -50.181087 -16.377136
RightArm 66.069754 -16.078062 47.223874
RightForeArm 62.759388 -0.000000 81.274353
RightHand 2.806401 -0.000000 26.395615
RightHandThumb1 -24.326973 -0.000000 -32.862282
LeftUpLeg -28.173175 4.050636 14.754306
LeftLeg 28.787058 -0.000000 -0.000000
LeftFoot -19.727806 5.277669 5.113526
LeftToeBase 0.178697 -0.000000 -0.000000
RightUpLeg -161.604126 4.007554 10.545180
RightLeg 90.846707 -0.000000 -0.000000
RightFoot 40.435214 -18.997863 6.039042
RightToeBase 44.048317 -0.000000 -0.000000
1243
root -2.254532 32.564040 -5.071083 -9.778180 54.995822 -33.553796
Spine -32.107931 -0.995006 13.400769
Head 11.833686 -0.002285 13.569191
LeftShoulder -3.049474 41.377457 27.985233
LeftArm 88.237360 28.735752 -37.158998
LeftForeArm -29.436235 -0.000000 82.143880
LeftHand -23.578106 -0.000000 -6.655746
LeftHandThumb1 -26.253704 0.000000 33.147579
RightShoulder -6.083062 -50.089669 -16.213107
RightArm 66.129664 -16.073951 47.268201
RightForeArm 62.833301 0.000000 81.082811
RightHand 2.985587 -0.000000 26.166926
RightHandThumb1 -24.326973 -0.000000 -32.862282
LeftUpLeg -28.349928 3.613357 15.210439
LeftLeg 28.981859 -0.000000 -0.000000
LeftFoot -19.490876 6.085872 5.525355
LeftToeBase -0.317208 -0.000000 0.000000
RightUpLeg -161.625532 4.212646 10.679899
RightLeg 90.450166 -0.000000 -0.000000
RightFoot 40.528477 -19.126782 5.929327
RightToeBase 43.939480 -0.000000 -0.000000
1244
root -2.263455 32.581911 -5.025284 -10.088953 54.810229 -34.143925
Spine -32.268839 -0.926014 13.712265
Head 11.742672 -0.045956 13.940034
LeftShoulder -2.932211 41.352811 28.110252
LeftArm 88.127293 28.722768 -37.329017
LeftForeArm -29.482249 -0.000000 82.040756
LeftHand -23.606332 -0.000000 -6.744968
LeftHandThumb1 -26.253704 0.000000 33.147579
RightShoulder -6.189808 -49.946802 -16.003695
RightArm 66.179979 -16.092800 47.326920
RightForeArm 62.690409 -0.000000 80.925642
RightHand 2.790000 -0.000000 26.213061
RightHandThumb1 -24.326973 -0.000000 -32.862282
LeftUpLeg -28.597603 3.251785 15.761304
LeftLeg 29.293226 -0.000000 -0.000000
LeftFoot -19.197877 6.840016 6.028721
LeftToeBase -0.891249 -0.000000 0.000000
RightUpLeg -161.598318 4.370587 10.860473
RightLeg 90.101155 -0.000000 -0.000000
RightFoot 40.498246 -19.080168 6.107614
RightToeBase 44.052213 -0.000000 -0.000000
1245
root -2.271184 32.600587 -4.979637 -10.491736 54.645430 -34.788807
Spine -32.368127 -0.900676 14.057776
Head 11.627049 -0.028723 14.334953
LeftShoulder -2.848283 41.300112 28.262268
LeftArm 88.050050 28.737258 -37.452917
LeftForeArm -29.565875 -0.000000 81.932395
LeftHand -23.555259 -0.000000 -6.637900
LeftHandThumb1 -26.253704 0.000000 33.147579
RightShoulder -6.321752 -49.788958 -15.780644
RightArm 66.270890 -16.092267 47.193339
RightForeArm 62.720080 -0.000000 80.783304
RightHand 2.331272 0.000000 26.477264
RightHandThumb1 -24.326973 -0.000000 -32.862282
LeftUpLeg -28.848768 2.942687 16.305360
LeftLeg 29.651283 -0.000000 -0.000000
LeftFoot -18.789490 7.643410 6.747652
LeftToeBase -1.827652 -0.000000 0.000000
RightUpLeg -161.564960 4.530921 11.069600
RightLeg 89.838010 -0.000000 -0.000000
RightFoot 40.541825 -19.055424 6.175491
RightToeBase 44.061587 -0.000000 -0.000000
